<svg xmlns="http://www.w3.org/2000/svg" width="30" height="30" viewBox="0 0 32 40" x="0px" y="0px"><title>Artboard 17</title><g data-name="Layer 16"><path d="M30,1H2A1,1,0,0,0,1,2V30a1,1,0,0,0,1,1H30a1,1,0,0,0,1-1V2A1,1,0,0,0,30,1ZM29,29H3V3H29Z"/><path d="M5.29,26.71a1,1,0,0,0,1.41,0L16,17.41l9.29,9.29a1,1,0,0,0,1.41-1.41L17.41,16l9.29-9.29a1,1,0,0,0-1.41-1.41L16,14.59,6.71,5.29A1,1,0,0,0,5.29,6.71L14.59,16,5.29,25.29A1,1,0,0,0,5.29,26.71Z"/></g><text x="0" y="47" fill="#000000" font-size="5px" font-weight="bold" font-family="'Helvetica Neue', Helvetica, Arial-Unicode, Arial, Sans-serif">Created by Ari vebriantoro</text><text x="0" y="52" fill="#000000" font-size="5px" font-weight="bold" font-family="'Helvetica Neue', Helvetica, Arial-Unicode, Arial, Sans-serif">from the Noun Project</text></svg>
