<svg width="25" height="24" viewBox="0 0 25 24" fill="none" xmlns="http://www.w3.org/2000/svg">
<g id="icon.ico">
<path id="Icon" fill-rule="evenodd" clip-rule="evenodd" d="M5.39999 2H19.4V3H20.4V4H21.4V5H22.4V6V18V19H21.4V20H20.4V21H19.4V22H5.39999V21H4.39999V20H3.39999V19H2.39999V18V6V5H3.39999V4H4.39999V3H5.39999V2ZM20.4 18V6H19.4V5H18.4V4H6.39999V5H5.39999V6H4.39999V18H5.39999V19H6.39999V20H18.4V19H19.4V18H20.4ZM17.4 6H18.4V7H17.4V6ZM9.39999 7H15.4V8H16.4V9H17.4V10V14V15H16.4V16H15.4V17H9.39999V16H8.39999V15H7.39999V14V10V9H8.39999V8H9.39999V7ZM14.4 14V15H10.4V14H9.39999V10H10.4V9H14.4V10H15.4V14H14.4Z" fill="black"/>
</g>
</svg>
