<svg width="217" height="310" viewBox="0 0 217 310" fill="none" xmlns="http://www.w3.org/2000/svg">
<path fill-rule="evenodd" clip-rule="evenodd" d="M27.4898 0H189.229L189.229 13.4783H202.707V26.9565H216.186V94.3478L189.229 94.3478V26.9565H121.838V94.3478H189.229V121.304L216.186 121.304V188.696H202.707V202.174H189.229L189.229 215.652H135.316V202.174H121.838L121.838 283.043H110.044V296.522H94.8812V310H27.4898V283.043H83.0877V269.565H94.8812V215.652H27.4898V188.696H94.8812V121.304L27.4898 121.304V94.3478H94.8812V26.9565H27.4898V94.3478L14.0116 94.3478V80.8696H0.533325V26.9565H14.0116V13.4783H27.4898V0ZM175.751 134.783H189.229V175.217H175.751V188.696H135.316V175.217H121.838V134.783H135.316V121.304H175.751V134.783Z" fill="#FF90FF"/>
<path d="M27.4898 121.304V188.696L0.533325 188.696V121.304L27.4898 121.304Z" fill="#FF90FF"/>
<path d="M27.4898 215.652H14.0116V229.13H0.533325V283.043H27.4898V215.652Z" fill="#FF90FF"/>
</svg>
