<svg width="310" height="310" viewBox="0 0 310 310" fill="none" xmlns="http://www.w3.org/2000/svg">
<path fill-rule="evenodd" clip-rule="evenodd" d="M241.913 81.375C234.024 79.5658 228.141 72.4612 228.141 63.9727V40.7697V17.4447C228.141 6.66935 219.462 -2.06665 208.758 -2.06665C205.648 -2.06665 202.621 -1.31367 199.916 0.0807455C197.665 1.23811 195.636 2.84517 193.963 4.83569L164.472 39.8877C159.512 45.7791 150.488 45.7791 145.528 39.8877L116.037 4.83569C112.352 0.457237 106.943 -2.06665 101.242 -2.06665C90.5379 -2.06665 81.8594 6.66935 81.8594 17.4447V67.5111C80.062 75.4523 73.0042 81.375 64.5716 81.375H41.5212H18.3496C7.6452 81.375 -1.03333 90.111 -1.03333 100.886C-1.03333 106.624 1.47396 112.07 5.82361 115.779L40.6451 145.466C46.4977 150.458 46.4977 159.542 40.6451 164.534L5.82361 194.221C1.47396 197.931 -1.03333 203.376 -1.03333 209.114C-1.03333 219.889 7.6452 228.625 18.3496 228.625H68.0866C75.9756 230.434 81.8594 237.539 81.8594 246.027V269.23V292.555C81.8594 303.331 90.5379 312.067 101.242 312.067C106.943 312.067 112.352 309.543 116.037 305.164L145.528 270.112C150.488 264.221 159.512 264.221 164.472 270.112L193.963 305.164C196.291 307.932 199.31 309.958 202.656 311.073C204.602 311.725 206.659 312.067 208.758 312.067C219.462 312.067 228.141 303.331 228.141 292.555V242.489C229.938 234.548 236.996 228.625 245.428 228.625H268.479H291.65C302.355 228.625 311.033 219.889 311.033 209.114C311.033 206.855 310.645 204.641 309.911 202.56C308.775 199.356 306.815 196.47 304.176 194.221L269.355 164.534C263.502 159.542 263.502 150.458 269.355 145.466L304.176 115.779C308.526 112.07 311.033 106.624 311.033 100.886C311.033 90.111 302.355 81.375 291.65 81.375H241.913Z" fill="#FF90FF"/>
</svg>
