<svg width="25" height="24" viewBox="0 0 25 24" fill="none" xmlns="http://www.w3.org/2000/svg">
<g id="icon.ico">
<path id="Icon" fill-rule="evenodd" clip-rule="evenodd" d="M19.2 2H14.2V3H13.2V4V5H12.2V6H11.2V7H12.2V8H9.2V7H6.2V6H4.2V5H3.2V4H2.2V3H1.2V4V5V6V7V8H2.2V9H3.2V10H1.2V11V12H2.2V13H4.2V14H2.2V15H4.2V16H5.2V17H7.2V18H5.2V19H0.199997V20H2.2V21H5.2V22H10.2V21H13.2V20H15.2V19H16.2V18H17.2V17H18.2V16H19.2V15H20.2V14V13H21.2V12V11V10H22.2V9V8V7V6H23.2V5H24.2V4H23.2V3H24.2V2H22.2V3H21.2V4H20.2V3H19.2V2ZM23.2 4V5H22.2V4H23.2Z" fill="black"/>
</g>
</svg>
