<svg width="129" height="128" viewBox="0 0 129 128" fill="none" xmlns="http://www.w3.org/2000/svg">
<g id="drive.block" clip-path="url(#clip0_18_73393)">
<g id="drive.outline">
<path d="M24.6001 30H96.6001V34H24.6001V30Z" fill="black"/>
<path d="M20.6001 38V34H24.6001V38H20.6001Z" fill="black"/>
<path d="M16.6001 42V38H20.6001V42H16.6001Z" fill="black"/>
<path d="M12.6001 46V42H16.6001V46H12.6001Z" fill="black"/>
<path d="M8.6001 50V46H12.6001V50H8.6001Z" fill="black"/>
<path d="M4.6001 54V50H8.6001V54H4.6001Z" fill="black"/>
<path d="M16.6001 70H24.6001V82H16.6001V70Z" fill="black"/>
<path fill-rule="evenodd" clip-rule="evenodd" d="M116.6 54H120.6V66H124.6V74H128.6V98H4.6001V94H0.600098V54H4.6001V62H116.6V54ZM4.6001 90H116.6V66H4.6001V90Z" fill="black"/>
<path d="M112.6 50H116.6V54H112.6V50Z" fill="black"/>
<path d="M108.6 46H112.6V50H108.6V46Z" fill="black"/>
<path d="M104.6 42H108.6V46H104.6V42Z" fill="black"/>
<path d="M100.6 38H104.6V42H100.6V38Z" fill="black"/>
<path d="M100.6 38V34H96.6001V38H100.6Z" fill="black"/>
</g>
<g id="drive.fill">
<path d="M24.6001 34V38H20.6001V42H16.6001V46H12.6001V50H8.6001V54H4.6001V62H116.6V54H112.6V50H108.6V46H104.6V42H100.6V38H96.6001V34H24.6001Z" fill="#FFFF50"/>
<path fill-rule="evenodd" clip-rule="evenodd" d="M4.6001 66H116.6V90H4.6001V66ZM24.6001 82H16.6001V70H24.6001V82Z" fill="#FFFF50"/>
</g>
</g>
<defs>
<clipPath id="clip0_18_73393">
<rect width="128" height="128" fill="white" transform="translate(0.600098)"/>
</clipPath>
</defs>
</svg>
