<svg width="42" height="72" viewBox="0 0 42 72" fill="none" xmlns="http://www.w3.org/2000/svg">
<g clip-path="url(#clip0_485_692)">
<path d="M31.1768 40L31.1768 38L29.4448 37L29.4448 35L25.9807 33L25.9807 29L22.5166 27L22.5166 23L19.0525 21L19.0525 17L8.66016 11L8.66016 47L19.0525 53L19.0525 51L19.0525 49L22.5166 51L22.5166 47L25.9807 49L25.9807 45L29.4448 47L29.4448 45L31.1768 46L31.1768 44L32.9089 45L32.9089 41L31.1768 40ZM22.5166 39L22.5166 43L19.0525 41L19.0525 45L15.5884 43L15.5884 47L12.1243 45L12.1243 17L15.5884 19L15.5884 23L19.0525 25L19.0525 29L22.5166 31L22.5166 35L25.9807 37L25.9807 41L22.5166 39Z" fill="black"/>
</g>
<defs>
<clipPath id="clip0_485_692">
<rect width="48" height="48" fill="white" transform="matrix(0.866025 0.5 -2.20305e-08 1 0 0)"/>
</clipPath>
</defs>
</svg>
